inDegrees=no
DataType=double
version=3
OpenSimVersion=4.4-2022-10-11-798caa840
endheader
time	elv_angle	shoulder_elv	shoulder_rot	elbow_flexion	pro_sup	deviation	flexion
2.4020851434	0.4838747954	0.7240123851	0.4198824631	1.4101236505	-0.0603459850	-0.0333794103	0.2173559214
2.4062554301	0.4838747954	0.7240123851	0.4198824631	1.4101236505	-0.0603459850	-0.0333794103	0.2173559214
2.4104257168	0.4838747954	0.7240123851	0.4198824631	1.4101236505	-0.0603459850	-0.0333794103	0.2173559214
2.4145960035	0.4838747954	0.7240123851	0.4198824631	1.4101236505	-0.0603459850	-0.0333794103	0.2173559214
2.4187662902	0.4838747954	0.7240123851	0.4198824631	1.4101236505	-0.0603459850	-0.0333794103	0.2173559214
2.4229365769	0.4838747954	0.7240123851	0.4198824631	1.4101236505	-0.0603459850	-0.0333794103	0.2173559214
2.4271068636	0.4838747954	0.7240123851	0.4198824631	1.4101236505	-0.0603459850	-0.0333794103	0.2173559214
2.4312771503	0.4838747954	0.7240123851	0.4198824631	1.4101236505	-0.0603459850	-0.0333794103	0.2173559214
2.4354474370	0.4838747954	0.7240123851	0.4198824631	1.4101236505	-0.0603459850	-0.0333794103	0.2173559214
2.4396177237	0.4838747954	0.7240123851	0.4198824631	1.4101236505	-0.0603459850	-0.0333794103	0.2173559214
2.4437880104	0.4838747954	0.7240123851	0.4198824631	1.4101236505	-0.0603459850	-0.0333794103	0.2173559214
2.4479582971	0.4838747954	0.7240123851	0.4198824631	1.4101236505	-0.0603459850	-0.0333794103	0.2173559214
2.4521285838	0.4838747954	0.7240123851	0.4198824631	1.4101236505	-0.0603459850	-0.0333794103	0.2173559214
2.4562988705	0.4843782810	0.7131269675	0.4235772694	1.4234163479	-0.0512990038	-0.0319541514	0.2181010033
2.4604691573	0.4841632781	0.7055370017	0.4309820178	1.4293015711	-0.0490453065	-0.0300977180	0.2183925924
2.4646394440	0.4837003867	0.6991937650	0.4358092735	1.4366005911	-0.0464916085	-0.0296416109	0.2182095567
2.4688097307	0.4833728350	0.6928867442	0.4353582278	1.4487409025	-0.0398001193	-0.0297319876	0.2169692552
2.4729800174	0.4833349837	0.6875947167	0.4365279750	1.4546857280	-0.0341857814	-0.0228503584	0.2129183185
2.4771503041	0.4840468138	0.6812645335	0.4360566750	1.4583600190	-0.0297635743	-0.0154604146	0.2099332956
2.4813205908	0.4854534933	0.6722873520	0.4297184844	1.4680735137	-0.0243660192	-0.0161373623	0.2107859186
2.4854908775	0.4860932672	0.6645812627	0.4273898866	1.4766875192	-0.0204804297	-0.0167688764	0.2085197648
2.4896611642	0.4864161238	0.6579767320	0.4279113342	1.4843053982	-0.0180595704	-0.0179354274	0.2068177731
2.4938314509	0.4870857602	0.6512388427	0.4264690757	1.4927245878	-0.0154391646	-0.0202449785	0.2081290537
2.4980017376	0.4876234469	0.6454045252	0.4232722094	1.4990169758	-0.0114310664	-0.0172426884	0.2043266340
2.5021720243	0.4892596704	0.6410812773	0.4190855570	1.5027229923	-0.0076480644	-0.0156746627	0.1971622726
2.5063423110	0.4917506159	0.6380357265	0.4162097235	1.5055696051	-0.0050484483	-0.0180557038	0.1919843039
2.5105125977	0.4928808406	0.6351360479	0.4173941041	1.5097599332	-0.0028247464	-0.0173156319	0.1910885867
2.5146828844	0.4939007794	0.6307203681	0.4189366998	1.5136581712	-0.0019506322	-0.0176174985	0.1868740173
2.5188531712	0.4952396442	0.6262005100	0.4185024550	1.5159718266	-0.0022461470	-0.0187004217	0.1778497469
2.5230234579	0.4961369890	0.6243173711	0.4175136548	1.5169789384	-0.0017089605	-0.0156940895	0.1694385160
2.5271937446	0.4977368582	0.6220749410	0.4190956851	1.5174637657	0.0018440116	-0.0133145727	0.1612414245
2.5313640313	0.4996159138	0.6188012579	0.4218024499	1.5181361595	0.0052561347	-0.0120739018	0.1516226787
2.5355343180	0.5009313662	0.6161506067	0.4222117233	1.5193388313	0.0052676776	-0.0092938607	0.1403848927
2.5397046047	0.5032424677	0.6148128310	0.4211103489	1.5207843311	0.0075722001	-0.0059518163	0.1301622810
2.5438748914	0.5062074807	0.6138931525	0.4200229413	1.5218020744	0.0119426790	-0.0029120518	0.1178458305
2.5480451781	0.5083564460	0.6125979293	0.4199871124	1.5222588801	0.0151739050	-0.0004646607	0.1029056831
2.5522154648	0.5089776852	0.6117048365	0.4208827829	1.5230327928	0.0163383777	0.0014433788	0.0942563582
2.5563857515	0.5103743589	0.6111316142	0.4214098483	1.5230474892	0.0149628878	0.0029292820	0.0880717771
2.5605560382	0.5131082222	0.6107070692	0.4206561483	1.5219425538	0.0117742650	0.0040957155	0.0794842800
2.5647263249	0.5142296753	0.6106188790	0.4192204451	1.5213221043	0.0089600875	0.0050317717	0.0700344640
2.5688966116	0.5144866390	0.6103377594	0.4192432805	1.5212341967	0.0080907050	0.0059343892	0.0586755175
2.5730668983	0.5150477299	0.6099160202	0.4206207543	1.5211473027	0.0085622952	0.0067048668	0.0474186621
2.5772371851	0.5158635447	0.6099762371	0.4210764909	1.5207232230	0.0082922936	0.0071336354	0.0405501245
2.5814074718	0.5159102659	0.6099734111	0.4211254533	1.5204275585	0.0075573733	0.0078608006	0.0346470991
2.5855777585	0.5156020124	0.6096492472	0.4211384398	1.5203034379	0.0077347883	0.0084060927	0.0282207298
2.5897480452	0.5161414893	0.6092746487	0.4210945233	1.5202012959	0.0096078531	0.0079866873	0.0222979381
2.5939183319	0.5171077627	0.6092074829	0.4217052030	1.5207257016	0.0111504518	0.0078662255	0.0163490816
2.5980886186	0.5180142526	0.6091374421	0.4225445193	1.5211890743	0.0104586524	0.0076371051	0.0122752568
2.6022589053	0.5185805723	0.6087912989	0.4228464721	1.5207748448	0.0080476338	0.0066013183	0.0108345803
2.6064291920	0.5187367304	0.6088109394	0.4228384162	1.5202167320	0.0079613178	0.0060361621	0.0075962890
2.6105994787	0.5190248468	0.6093844725	0.4229584779	1.5197890802	0.0090498702	0.0064409168	0.0039866764
2.6147697654	0.5198114790	0.6101572905	0.4232789120	1.5195438456	0.0090634114	0.0071629783	0.0025064695
2.6189400521	0.5207181283	0.6104484183	0.4232762843	1.5196210128	0.0084536561	0.0069680651	0.0024011608
2.6231103388	0.5212469061	0.6101189597	0.4226860095	1.5198028928	0.0084285224	0.0071244706	0.0029838367
2.6272806255	0.5215727194	0.6097227209	0.4218464308	1.5197436118	0.0086574535	0.0080697196	0.0035605634
2.6314509123	0.5223593031	0.6100173214	0.4214722383	1.5192943849	0.0076165807	0.0085011856	0.0034295361
2.6356211990	0.5228534733	0.6102062908	0.4213907976	1.5190843927	0.0073973529	0.0086875643	0.0025769725
2.6397914857	0.5227364294	0.6101739719	0.4214430530	1.5192722625	0.0084622275	0.0087817859	0.0016087912
2.6439617724	0.5224531248	0.6104637396	0.4216849461	1.5194576810	0.0092125837	0.0086096990	0.0010530372
2.6481320591	0.5224086485	0.6105425470	0.4220871662	1.5194624404	0.0092459060	0.0085722921	0.0000552922
2.6523023458	0.5224089838	0.6103818419	0.4224850145	1.5193058293	0.0091137218	0.0086126675	-0.0009408294
2.6564726325	0.5221469838	0.6103073260	0.4227155209	1.5191502985	0.0092957231	0.0085230650	-0.0011731689
2.6606429192	0.5219727849	0.6102689484	0.4228088821	1.5192175420	0.0090178754	0.0086254976	-0.0016128453
2.6648132059	0.5218627049	0.6101343165	0.4227739665	1.5194896368	0.0080766709	0.0086707306	-0.0022589166
2.6689834926	0.5217930241	0.6099173363	0.4226232844	1.5197878591	0.0068335988	0.0084920382	-0.0022743310
2.6731537793	0.5221060465	0.6098758917	0.4224443903	1.5199074414	0.0059440259	0.0085874355	-0.0009795722
2.6773240660	0.5226321272	0.6100232584	0.4224634110	1.5197807605	0.0061464970	0.0088465410	-0.0006501230
2.6814943527	0.5229487195	0.6102524384	0.4226555125	1.5196107722	0.0066037950	0.0089597002	-0.0019904175
2.6856646394	0.5227658606	0.6104683987	0.4227055535	1.5197149656	0.0052883779	0.0088359933	-0.0025986610
2.6898349262	0.5225934133	0.6106924221	0.4228372949	1.5196218254	0.0045836055	0.0089147514	-0.0028927149
2.6940052129	0.5227819432	0.6108626883	0.4229574370	1.5193362601	0.0053179107	0.0092539566	-0.0029104569
2.6981754996	0.5232093306	0.6109010634	0.4227097839	1.5194005944	0.0058952142	0.0094720704	-0.0021196672
2.7023457863	0.5235478697	0.6110730426	0.4225417715	1.5196487969	0.0066889705	0.0095832735	-0.0024962277
2.7065160730	0.5236370688	0.6112881472	0.4225172590	1.5197978049	0.0074053305	0.0096285716	-0.0032719759
2.7106863597	0.5235124699	0.6114045561	0.4224708310	1.5197037557	0.0071621338	0.0096206974	-0.0025108911
2.7148566464	0.5232557538	0.6119287993	0.4227444604	1.5194922521	0.0059834527	0.0096212079	-0.0018849298
2.7190269331	0.5225833935	0.6122760737	0.4230840752	1.5193472545	0.0050711166	0.0095497574	-0.0016131820
2.7231972198	0.5216901265	0.6117907808	0.4230274966	1.5193176962	0.0051821410	0.0093765327	-0.0011756535
2.7273675065	0.5218470084	0.6110931313	0.4225957322	1.5192012811	0.0051092602	0.0093141839	-0.0010514145
2.7315377932	0.5221465354	0.6108094600	0.4224456619	1.5190150259	0.0044909403	0.0093321221	-0.0018850555
2.7357080799	0.5217350847	0.6109542378	0.4226434559	1.5188759614	0.0036889939	0.0093977484	-0.0034387616
2.7398783666	0.5213254066	0.6108491375	0.4222420048	1.5188669117	0.0033088343	0.0096219166	-0.0043393609
2.7440486533	0.5211711258	0.6104551745	0.4216997152	1.5189987489	0.0034284375	0.0099045939	-0.0043388221
2.7482189401	0.5213238363	0.6099726072	0.4219866561	1.5192585911	0.0039377000	0.0100692059	-0.0036078026
2.7523892268	0.5235987756	0.6108652382	0.4188790205	1.5184364492	0.0000000000	0.0000000000	0.0000000000
2.7565595135	0.5235987756	0.6108652382	0.4188790205	1.5184364492	0.0000000000	0.0000000000	0.0000000000
2.7607298002	0.5235987756	0.6108652382	0.4188790205	1.5184364492	0.0000000000	0.0000000000	0.0000000000
2.7649000869	0.5235987756	0.6108652382	0.4188790205	1.5184364492	0.0000000000	0.0000000000	0.0000000000
2.7690703736	0.5235987756	0.6108652382	0.4188790205	1.5184364492	0.0000000000	0.0000000000	0.0000000000
2.7732406603	0.5235987756	0.6108652382	0.4188790205	1.5184364492	0.0000000000	0.0000000000	0.0000000000
2.7774109470	0.5235987756	0.6108652382	0.4188790205	1.5184364492	0.0000000000	0.0000000000	0.0000000000
2.7815812337	0.5235987756	0.6108652382	0.4188790205	1.5184364492	0.0000000000	0.0000000000	0.0000000000
2.7857515204	0.5235987756	0.6108652382	0.4188790205	1.5184364492	0.0000000000	0.0000000000	0.0000000000
2.7899218071	0.5235987756	0.6108652382	0.4188790205	1.5184364492	0.0000000000	0.0000000000	0.0000000000
2.7940920938	0.5235987756	0.6108652382	0.4188790205	1.5184364492	0.0000000000	0.0000000000	0.0000000000
2.7982623805	0.5235987756	0.6108652382	0.4188790205	1.5184364492	0.0000000000	0.0000000000	0.0000000000
2.8024326672	0.5235987756	0.6108652382	0.4188790205	1.5184364492	0.0000000000	0.0000000000	0.0000000000
2.8066029540	0.5235987756	0.6108652382	0.4188790205	1.5184364492	0.0000000000	0.0000000000	0.0000000000
2.8107732407	0.5235987756	0.6108652382	0.4188790205	1.5184364492	0.0000000000	0.0000000000	0.0000000000
2.8149435274	0.5235987756	0.6108652382	0.4188790205	1.5184364492	0.0000000000	0.0000000000	0.0000000000
2.8191138141	0.5235987756	0.6108652382	0.4188790205	1.5184364492	0.0000000000	0.0000000000	0.0000000000
2.8232841008	0.5235987756	0.6108652382	0.4188790205	1.5184364492	0.0000000000	0.0000000000	0.0000000000
2.8274543875	0.5235987756	0.6108652382	0.4188790205	1.5184364492	0.0000000000	0.0000000000	0.0000000000
2.8316246742	0.5235987756	0.6108652382	0.4188790205	1.5184364492	0.0000000000	0.0000000000	0.0000000000
